<svg
  version="1.1"
  xmlns="http://www.w3.org/2000/svg"
  style="display: block"
  viewBox="0 0 1172 1724"
  width="480"
  height="480"
  preserveAspectRatio="xMidYMid meet">
  <path
    fill="rgb(87,66,169)"
    d="M 143.364 628.949 C 126.913 592.525 106.583 550.665 121.76 510.406 C 136.463 471.405 177.126 446.538 213.356 430.288 C 324.693 380.353 465.778 364.287 586.895 369.296 C 578.86 378.815 570.767 388.402 563.984 398.871 C 558.047 408.033 553.154 418.025 546.899 426.947 C 509.362 447.574 427.73 461.133 400.504 489.372 C 385.914 504.506 372.079 529.708 359.562 547.61 C 349.472 562.043 325.605 591.29 320.673 607.218 C 319.453 611.157 320.325 615.559 322.314 619.099 C 324.118 622.31 327.157 625.667 330.785 626.628 C 341.538 629.476 354.96 627.858 366.094 628.477 L 471.482 634.582 C 467.497 656.177 463.077 681.208 476.455 700.459 C 484.8 712.466 497.61 722.687 509.587 730.87 C 496.152 747.375 439.537 800.304 441.316 818.516 C 441.99 825.413 446.241 829.241 451.368 833.341 C 462.822 842.5 476.208 850.094 488.512 858.108 C 508.549 871.157 529.887 887.423 551.937 896.612 C 557.449 898.908 564.062 900.595 570.065 899.893 C 576.232 899.172 579.217 896.251 582.833 891.503 C 591.529 880.085 598.216 865.754 605.399 853.29 C 614.409 837.654 624.792 821.906 632.473 805.607 C 654.346 819.754 681.055 837.798 708.414 831.833 C 723.486 828.548 736.482 819.704 749.537 811.921 C 760.829 840.336 773.306 868.22 785.449 896.275 C 791.783 910.91 797.074 927.435 805.674 940.832 C 807.879 944.267 810.878 947.219 814.672 948.832 C 818.262 950.359 822.598 950.617 826.206 948.984 C 830.709 946.947 834.583 942.147 837.513 938.321 C 847.855 924.813 856.364 909.308 865.784 895.08 C 879.306 874.656 906.162 841.666 913.172 819.971 C 920.532 797.192 909.638 687.125 909.837 653.753 C 917.968 640.586 930.53 628.938 940.147 616.699 C 966.303 583.41 990.351 545.245 1005.47 505.621 C 1028.91 518.119 1045.31 535.34 1053.22 561.142 C 1058.58 578.889 1058.59 597.824 1053.25 615.577 C 1049.8 627.304 1044.22 638.714 1039.48 649.975 L 1016.73 704.58 L 931.89 906.935 L 825.692 1158.47 L 789.371 1244.72 C 782.93 1259.98 776.999 1275.91 769.653 1290.74 C 769.341 1291.37 769.22 1291.55 768.893 1292.08 C 746.015 1347.61 721.84 1402.64 698.209 1457.85 C 686.848 1484.39 672.637 1525.48 656.913 1548.44 C 647.649 1561.97 634.777 1573.67 619.5 1579.96 C 601.448 1587.25 581.244 1587.13 563.286 1579.6 C 545.165 1571.99 530.915 1557.96 521.244 1541.04 C 505.851 1514.12 495.728 1483.34 483.821 1454.7 L 412.128 1281.41 L 143.364 628.949 z" />
  <path
    fill="rgb(115,80,200)"
    d="M 143.364 628.949 C 147.024 628.287 149.061 630.386 152.007 632.433 C 171.534 646.003 193.115 673.179 209.451 691.178 L 270.616 757.236 L 657.517 1174.02 C 673.855 1191.53 758.007 1287.01 768.893 1292.08 C 746.015 1347.61 721.84 1402.64 698.209 1457.85 C 686.848 1484.39 672.637 1525.48 656.913 1548.44 C 647.649 1561.97 634.777 1573.67 619.5 1579.96 C 601.448 1587.25 581.244 1587.13 563.286 1579.6 C 545.165 1571.99 530.915 1557.96 521.244 1541.04 C 505.851 1514.12 495.728 1483.34 483.821 1454.7 L 412.128 1281.41 L 143.364 628.949 z" />
  <path
    fill="rgb(77,84,92)"
    mask="url(#d7fc7da2)"
    d="M 994.963 114.419 C 1001.39 114.687 1007.36 115.419 1013.06 118.637 C 1021.65 123.488 1026.05 131.755 1028.7 140.953 C 1032.41 153.828 1033.75 167.763 1035.32 181.049 C 1048.41 291.578 1011.01 428.667 957.825 525.61 C 908.292 615.896 840.684 691.273 762.332 757.557 C 744.478 772.661 719.12 794.875 696.891 801.36 C 681.94 796.364 667.787 785.029 654.756 776.371 L 607.847 745.004 C 591.727 736.65 570.842 720.246 554.911 709.406 C 542.213 700.765 527.996 693.012 516.333 683.092 C 510.863 678.44 508.393 674.929 507.951 667.642 C 506.903 650.329 515.444 619.36 519.512 601.724 C 547.534 480.221 592.886 394.912 675.596 301.68 C 743.435 225.213 829.874 158.7 928.426 128.158 C 950.239 121.397 972.08 115.79 994.963 114.419 z" />
  <mask id="d7fc7da2">
    <rect x="0" y="0" width="1172" height="1724" fill="white" />
    <circle cx="829.374" cy="396.397" r="70" fill="black" />
  </mask>
</svg>
